# xmcd CD database file
#
# Track frame offsets:
#	150
#	28987
#	46562
#	59560
#	79492
#	97125
#	121672
#	141200
#	163390
#	183542
#	204867
#	218630
#
# Disc length: 3406 seconds
#
# Revision: 1
# Processed by: cddbd v1.5.2PL0 Copyright (c) Steve Scherf et al.
# Submitted via: CDex 1.70beta2
#
DISCID=ae0d4c0c
DTITLE=AURA - TESAURAS
DYEAR=1990
DGENRE=Rock
TTITLE0=Peace of prayer
TTITLE1=愛・オーランド(NEW VERSION)
TTITLE2=Love Magic
TTITLE3=夢見る人形
TTITLE4=O・T・O・N・A
TTITLE5=白く白く
TTITLE6=Shining star
TTITLE7=GO! GO! GO!
TTITLE8=OH NO!
TTITLE9=ドリーミング・ナウ(NEW VERSION)
TTITLE10=大きな栗の木の下で(INSTRUMENTAL VERSION)
TTITLE11=Wendy
EXTD=YEAR: 1990
EXTT0=
EXTT1=
EXTT2=
EXTT3=
EXTT4=
EXTT5=
EXTT6=
EXTT7=
EXTT8=
EXTT9=
EXTT10=
EXTT11=
PLAYORDER=
